<svg width="190" height="30" viewBox="0 0 190 30" fill="none" xmlns="http://www.w3.org/2000/svg">
<g clip-path="url(#clip0_40_294)">
<path d="M189.84 15.2134L184.274 15.1425V18.9191C184.274 23.7772 183.423 27.341 183.015 28.4049C182.749 28.7063 182.128 28.8836 181.756 28.7772C181.526 27.9262 181.047 25.2843 181.047 20.8871V3.90133C181.047 3.19211 179.044 1.72048 178.299 1.48998C178.104 1.41906 178.742 0.674378 178.937 0.674378C180.462 0.674378 184.469 1.59636 184.38 2.30558C184.309 2.78431 184.274 3.35168 184.274 3.97225V13.6886L188.493 12.0219C188.865 11.8801 190.532 15.2134 189.858 15.2134M178.281 17.0574C178.866 17.873 177.288 21.3304 176.721 20.5148C175.906 19.3623 173.672 15.9581 171.668 13.6886C168.991 17.4297 165.658 20.4439 162.662 22.0396C162.29 22.0042 161.847 21.4545 161.847 21.1176C165.552 17.8198 169.736 12.0396 171.491 6.77367C171.597 6.47225 170.339 5.55026 169.789 5.21339C169.612 5.107 170.374 4.53963 170.569 4.53963C171.58 4.53963 174.381 5.69211 175.055 6.17083C175.427 6.43679 175.462 6.61409 175.285 7.05736C174.54 8.98998 173.548 10.834 172.431 12.5361C174.948 14.2737 177.732 16.2772 178.281 17.0574ZM160.286 15.5325L154.684 15.4262V18.9191C154.684 23.7772 153.904 27.341 153.461 28.4049C153.195 28.7063 152.574 28.8836 152.238 28.7772C151.972 27.9262 151.528 25.2843 151.528 20.8871V3.90133C151.528 3.19211 149.525 1.7914 148.78 1.48998C148.603 1.41906 149.224 0.674378 149.419 0.674378C150.943 0.674378 154.861 1.59636 154.791 2.30558C154.755 2.78431 154.684 3.35168 154.684 3.97225V13.99L158.921 12.3588C159.329 12.1815 160.996 15.5148 160.286 15.5148M142.079 17.1992C143.639 17.1992 144.791 16.1176 144.791 14.451C144.791 12.7843 143.71 11.6673 142.079 11.6673C140.448 11.6673 139.366 12.7843 139.366 14.451C139.366 16.1176 140.448 17.1992 142.079 17.1992ZM136.778 3.03253C136.743 2.89069 136.92 2.4297 137.115 2.44743C138.232 2.66019 139.366 2.85523 140.785 3.03253L144.242 3.40487C144.543 3.44034 145.873 5.26658 144.986 5.26658H139.756C138.87 5.26658 136.831 3.33395 136.76 3.03253M133.303 7.16374C133.268 7.05736 133.48 6.68502 133.569 6.72048C134.154 6.93324 136.228 6.98643 138.196 6.95097L145.27 6.88005C147.309 6.84459 147.912 5.83395 148.231 5.83395C148.568 5.83395 149.862 7.62473 149.862 8.45807C149.862 8.59991 149.72 8.68856 149.49 8.68856C149.153 8.68856 147.185 8.58218 145.625 8.58218L138.019 8.61764C136.796 8.61764 135.98 8.8836 135.608 9.22048C134.651 8.95452 133.463 7.51835 133.339 7.14601M150.199 21.0644C147.149 22.4652 141.299 23.2808 137.292 23.7772C136.211 23.9191 135.555 24.1141 134.917 24.4864C133.888 24.2205 132.399 22.7134 132.257 22.146C132.293 21.9687 132.434 21.8091 132.523 21.7027C133.64 21.7027 135.271 21.7382 137.239 21.6318C138.462 21.5609 139.615 21.49 140.661 21.4013L140.466 18.4758C137.877 18.0325 136.282 16.5077 136.282 14.3978C136.282 12.0928 138.285 10.5325 141.441 10.3552C141.476 10.2134 141.512 10.1247 141.512 9.98289C141.512 9.71693 141.441 9.39778 141.068 9.13182C141.068 8.49353 143.107 9.13183 143.107 9.4687C143.107 9.61055 142.93 10.0183 142.841 10.3552C145.926 10.568 147.876 12.1283 147.876 14.3978C147.876 16.5077 146.21 18.0325 143.657 18.4758L143.515 21.1176C146.742 20.7453 148.922 20.2311 150.376 19.7524C150.677 19.646 150.553 20.8694 150.181 21.0467M111.568 4.5219L111.532 10.1957H119.439L119.634 4.5219H111.55H111.568ZM106.444 3.26303C106.409 3.08573 106.887 2.51835 107.118 2.51835C107.703 2.51835 109.724 2.58927 111.053 2.81977H118.588C119.546 2.81977 120.042 2.67792 120.414 2.34104C120.822 2.1992 123.464 2.607 123.41 3.05026L122.294 9.87651C122.772 10.3198 123.41 11.2063 123.41 11.685C123.41 11.8269 123.269 11.9155 123.038 11.9155C122.701 11.9155 121.443 11.8801 119.546 11.8801H111.195C110.983 12.2524 110.717 12.5893 110.415 12.9439C110.114 13.2453 109.564 13.3871 109.156 13.2808C108.82 12.4652 108.536 10.9049 108.306 8.08573L108.004 4.55736C107.969 4.22048 107.011 3.4758 106.444 3.26303ZM125.254 27.3765C125.254 27.5183 125.148 27.607 124.882 27.607H121.389L111 27.6425C108.11 27.6425 107.543 26.6496 107.543 24.7169V21.8269C107.543 21.3127 106.462 20.4262 105.841 20.3375C105.646 20.302 106.32 19.451 106.586 19.451C107.774 19.451 109.547 19.7169 110.433 20.0538C110.61 20.1247 110.876 20.2311 110.805 20.6035C110.734 21.0467 110.734 21.685 110.734 22.2347V24.7524C110.734 25.7985 111.107 25.9403 112.029 25.9403L120.751 25.9049C122.595 25.9049 123.198 24.8765 123.428 24.8765C123.907 24.8765 125.254 26.5786 125.254 27.3588M128.552 16.3836C128.552 16.5609 128.41 16.6496 128.18 16.6496H117.418V18.6176C117.418 20.6212 116.674 22.3588 116.159 23.1389C115.893 23.4403 115.308 23.5822 114.936 23.4758C114.635 22.5538 114.191 21.3304 114.191 19.0964V16.6496H106.958C105.735 16.6496 104.919 16.9864 104.547 17.3233C103.59 17.0574 101.657 15.5503 101.657 15.2134C101.657 15.0715 101.834 14.6992 101.923 14.7347C102.508 14.9474 104.582 14.9652 106.55 14.9652L123.198 14.9297C125.307 14.9297 126.017 13.7418 126.283 13.7418C126.655 13.7418 128.552 15.5503 128.552 16.3659M81.1272 7.78431C81.1272 9.96516 82.5455 11.4191 84.6907 11.4191C86.8359 11.4191 88.4669 9.96516 88.4669 7.78431C88.4669 5.60346 86.9422 4.14955 84.7261 4.14955C82.51 4.14955 81.1272 5.62119 81.1272 7.78431ZM77.9005 7.89069C77.9005 4.84104 80.3471 2.80204 84.1234 2.58927C84.1588 2.48289 84.1943 2.39424 84.1943 2.28785C84.1943 1.98643 84.1234 1.64956 83.6801 1.33041C83.6801 0.656647 85.9494 1.33041 85.9494 1.70275C85.9494 1.84459 85.7721 2.25239 85.6835 2.58927C89.2825 2.85523 91.6581 4.89424 91.6581 7.89069C91.6581 11.0467 88.9102 13.1212 84.7971 13.1212C80.684 13.1212 77.9005 11.0467 77.9005 7.89069ZM98.2178 17.1637C98.2178 17.3056 98.076 17.3942 97.8455 17.3942H90.4703V19.0254C90.4703 23.6176 89.6548 27.1815 89.2115 28.2276C88.9456 28.529 88.3251 28.6708 87.9883 28.5999C87.7223 27.7488 87.2436 25.107 87.2436 20.9935V17.3942L82.0491 17.4297V18.4581C82.0491 23.0148 81.2336 26.5786 80.8258 27.6247C80.5599 27.9262 79.9394 28.068 79.567 27.9971C79.3366 27.146 78.8579 24.5042 78.8579 20.4262V17.4297H76.6241C75.4008 17.4297 74.5852 17.7666 74.2129 18.1035C73.2556 17.8375 71.3231 16.3304 71.3231 15.9581C71.3231 15.8517 71.5004 15.4793 71.5891 15.5148C72.1741 15.7098 74.2484 15.7453 76.2163 15.7453L92.8637 15.6744C94.9734 15.6744 95.6826 14.4864 95.9485 14.4864C96.3208 14.4864 98.2178 16.3127 98.2178 17.1283M51.0591 6.41906C51.0591 8.28076 52.4596 9.61055 54.5517 9.61055C56.6437 9.61055 58.0442 8.28076 58.0442 6.41906C58.0442 4.55736 56.6437 3.29849 54.5517 3.29849C52.4596 3.29849 51.0591 4.59282 51.0591 6.41906ZM47.8324 6.5609C47.8324 3.8836 50.1726 1.93324 53.807 1.70275C53.8425 1.52544 53.9134 1.40133 53.9134 1.22402C53.9134 0.922605 53.807 0.603456 53.3993 0.302037C53.3993 -0.407183 55.6686 0.302037 55.6686 0.638917C55.6686 0.851683 55.4381 1.31268 55.2963 1.68502C58.8952 1.91551 61.3063 3.86587 61.3063 6.54317C61.3063 9.36232 58.5584 11.3659 54.5517 11.3659C50.5449 11.3659 47.8324 9.36232 47.8324 6.54317M63.9302 27.9262C63.9302 28.1035 63.7884 28.1566 63.5579 28.1566H50.3499C48.0806 28.1566 47.2828 27.3765 47.2296 25.6035L47.1587 23.334C47.1587 22.9971 46.2723 22.5538 45.705 22.3056C45.6695 22.1283 46.1836 21.5609 46.4496 21.5609C47.0878 21.5609 49.5167 21.7027 50.3854 22.0042H58.9839L59.0193 19.2559H50.4208C49.3748 19.2559 48.6834 19.5219 48.3111 19.8765C47.0878 19.6992 46.095 18.1035 46.0773 17.873C46.0418 17.6957 46.2191 17.3588 46.3787 17.3942C47.4601 17.5893 48.8252 17.5893 50.7931 17.5893H57.8315C58.7888 17.5893 59.2853 17.4829 59.6576 17.1105C60.0653 17.0751 62.7778 17.3765 62.6892 17.8198L61.8382 21.8269C62.4764 22.3056 62.8842 23.1212 62.8842 23.3162C62.8842 23.4935 62.7778 23.6176 62.6183 23.6176C62.3169 23.6176 60.3844 23.5822 58.8066 23.5822H50.3854V25.0715C50.3854 26.224 50.7222 26.4545 52.2469 26.4545H59.693C61.8027 26.4545 62.1041 25.568 62.3346 25.568C62.8133 25.568 63.9302 27.1637 63.9302 27.873M67.8128 14.7879C67.8128 14.9297 67.671 15.0184 67.4405 15.0184H62.6537L46.2368 15.0538C45.049 15.0538 44.2335 15.3907 43.8612 15.6921C42.8683 15.4262 41.1132 13.9545 40.9714 13.5822C40.9359 13.4758 41.1486 13.1035 41.2373 13.1389C41.8223 13.3517 43.8789 13.3871 45.8645 13.3871L62.4764 13.3162C64.5507 13.3162 65.2599 12.1283 65.5613 12.1283C65.9336 12.1283 67.7951 13.9545 67.7951 14.7701M30.2986 14.7169C30.2986 15.0184 30.0681 15.0183 29.2526 15.2666C28.9157 15.373 28.7385 15.9049 28.4725 16.7559C27.8875 18.5467 26.0259 21.4368 22.1611 21.4368C18.2962 21.4368 16.2574 18.1389 16.1155 17.9616C15.9205 17.6957 15.6014 17.4474 15.3354 17.4474C15.1582 17.4474 15.0341 17.5184 14.9277 17.5893C13.5271 18.5467 12.0024 19.6283 12.0024 22.1105C12.0024 23.7418 13.3675 25.6035 15.6723 25.6035C17.6402 25.6035 18.9344 23.7418 19.3422 22.4474C19.484 22.0042 19.4485 21.8269 19.679 21.8269C19.9804 21.8269 20.0868 22.5006 20.4945 22.5006C20.8314 22.5006 20.725 22.3233 21.1682 22.3233C21.576 22.3233 21.6824 22.873 22.0192 22.873C22.4979 22.873 23.1361 22.4652 23.4553 22.4652C23.5616 22.4652 23.7212 22.4652 23.7212 22.5715C23.7212 22.7488 23.4198 22.9084 23.1361 23.1566C22.5511 23.6708 22.1256 23.9723 21.6824 24.7169C20.1222 27.3588 18.3139 27.8375 17.392 28.1212C17.0551 28.2276 16.7183 28.3871 16.5765 28.7063C16.0623 29.8588 15.7609 30.0006 15.6191 30.0006C15.4418 30.0006 15.3886 29.8056 15.3532 29.3623C15.3177 28.8836 15.0518 28.334 14.1299 28.1744C11.7897 27.7311 8.89988 25.3552 8.89988 21.6141C8.89988 18.2453 11.4528 16.9332 12.747 15.6389C12.9243 15.4616 13.0484 15.2666 13.0484 14.9652V14.8588C13.0484 14.6992 13.013 14.4864 12.8002 14.2205C11.506 12.5893 10.5309 11.5077 8.75805 11.5077C6.82561 11.5077 5.12364 13.1035 5.12364 15.4084C5.12364 17.8907 6.34693 18.7418 7.57022 19.0432C7.97798 19.1496 8.11981 19.185 8.11981 19.3091C8.11981 19.5751 7.85388 19.5219 7.85388 19.9297C7.85388 20.2311 8.08435 20.1957 8.08435 20.6744C8.08435 21.0113 7.78296 21.1176 7.78296 21.6318C7.78296 22.0396 7.97798 22.1815 7.97798 22.412C7.97798 22.7134 8.15527 22.6779 8.15527 23.334C8.15527 23.5113 8.22618 23.6354 8.08435 23.6354C7.94252 23.6354 7.78296 23.4049 7.57022 23.0857C7.09154 22.3765 6.5774 21.9332 6.2051 21.6496C3.24438 19.5042 3.13801 18.5644 2.39339 17.0928C2.21611 16.7559 2.16292 16.1708 1.80834 16.0113C0.726883 15.4616 -0.0177288 15.302 -0.0177288 14.4155C-0.0177288 14.0077 0.46095 14.4155 1.20556 14.4155C1.61332 14.4155 2.092 14.4864 2.32248 13.6354C2.83661 11.8269 4.96408 8.93679 8.70486 8.93679C12.6761 8.93679 14.644 12.2347 14.7859 12.412C15.0518 12.7843 15.3 12.9262 15.5659 12.9262C15.7432 12.9262 15.8673 12.9262 16.1687 12.6602C18.6862 10.4262 18.8812 9.43324 18.8812 8.13892C18.8812 6.50771 17.587 4.61055 15.2823 4.61055C12.9775 4.61055 11.8783 6.43679 11.5769 7.80204C11.4706 8.2453 11.3996 8.4758 11.2046 8.4758C10.9032 8.4758 10.9032 8.068 10.5664 8.068C10.0168 8.068 9.96361 8.29849 9.67995 8.29849C9.30764 8.29849 9.30764 7.62473 8.75805 7.62473C8.61622 7.62473 8.31483 7.80204 8.11981 7.80204C7.60567 7.80204 7.57022 7.90842 7.33974 7.90842C7.07381 7.90842 6.79015 7.76658 6.79015 7.57154C6.79015 7.37651 6.96744 7.23466 7.4993 6.9687C8.20846 6.59636 8.86442 6.33041 9.20127 5.568C10.2473 3.22757 12.5698 2.48289 13.4562 2.14601C13.793 2.00417 13.9703 1.88005 14.1299 1.5609C14.839 0.266576 15.1582 0.124732 15.3532 0.124732C15.5482 0.124732 15.5305 0.461612 15.6191 0.869413C15.7255 1.34814 15.7255 1.72048 16.5056 1.91551C18.7217 2.50062 21.966 4.53963 21.966 8.26303C21.966 11.9864 18.2962 14.3446 18.1189 14.4864C17.7111 14.7879 17.5693 15.0361 17.5693 15.2666C17.5693 15.4439 17.6757 15.6389 17.782 15.8517C18.6685 17.6247 20.1932 18.7772 21.966 18.7772C24.0758 18.7772 25.7068 16.8091 25.7068 14.7701C25.7068 12.7311 24.3417 11.5077 23.1539 11.1354C22.7106 10.9935 22.5156 10.9935 22.5156 10.763C22.5156 10.4971 22.817 10.5857 22.817 10.1779C22.817 9.87651 22.6752 9.94743 22.6752 9.4687C22.6752 9.13183 23.083 9.02544 23.083 8.51126C23.083 8.10346 22.8879 7.96161 22.8879 7.73112C22.8879 7.4297 22.7816 7.46516 22.7816 6.80913C22.7816 6.63182 22.7106 6.50771 22.8525 6.50771C23.0298 6.50771 23.1893 6.73821 23.4021 7.05736C23.8808 7.76658 24.2531 8.31622 24.6254 8.54672C27.3024 10.2488 27.8875 11.3304 28.508 12.8552C28.6498 13.1921 28.7739 13.7772 29.1817 14.0077C29.5185 14.2205 30.2631 14.451 30.2631 14.7169" fill="white"/>
</g>
<defs>
<clipPath id="clip0_40_294">
<rect width="190" height="30" fill="white"/>
</clipPath>
</defs>
</svg>
